HIERARCHY
ROOT Hips
{
	OFFSET 0.000000 0.000000 0.000000 
	CHANNELS 6 Xposition Yposition Zposition Yrotation Zrotation Xrotation 
	JOINT Lumbar
	{
		OFFSET 0.000000 0.000000 0.000000 
		CHANNELS 3 Zrotation Xrotation Yrotation
		JOINT Neck
		{
			OFFSET 0.000000 0.445665 0.000000 
			CHANNELS 3 Zrotation Xrotation Yrotation
			End Site
			{
				OFFSET 0.000000 0.227535 0.000000 
			}
		}
		JOINT RightShoulder
		{
			OFFSET 0.019635 0.377685 0.194865 
			CHANNELS 3 Zrotation Xrotation Yrotation
			JOINT RightElbow
			{
				OFFSET 0.000000 -0.243375 0.000000 
				CHANNELS 2 Zrotation Yrotation
				JOINT RightWrist
				{
					OFFSET 0.000000 -0.264825 0.000000 
					CHANNELS 2 Zrotation Xrotation
					End Site
					{
						OFFSET 0.006600 -0.176220 0.000990 
					}
				}
			}
		}
		JOINT LeftShoulder
		{
			OFFSET 0.019635 0.377685 -0.194865 
			CHANNELS 3 Zrotation Xrotation Yrotation
			JOINT LeftElbow
			{
				OFFSET 0.000000 -0.243375 0.000000 
				CHANNELS 2 Zrotation Yrotation
				JOINT LeftWrist
				{
					OFFSET 0.000000 -0.264825 0.000000 
					CHANNELS 2 Zrotation Xrotation
					End Site
					{
						OFFSET 0.006600 -0.176220 -0.000990 
					}
				}
			}
		}
	}
	JOINT RightHip
	{
		OFFSET 0.052140 -0.069960 0.075570 
		CHANNELS 3 Zrotation Xrotation Yrotation
		JOINT RightKnee
		{
			OFFSET 0.000000 -0.402270 0.000000 
			CHANNELS 1 Zrotation
			JOINT RightAnkle
			{
				OFFSET 0.000000 -0.404085 0.000000 
				CHANNELS 3 Zrotation Xrotation Yrotation
				End Site
				{
					OFFSET 0.204105 -0.089430 0.008415 
				}
			}
		}
	}
	JOINT LeftHip
	{
		OFFSET 0.052140 -0.069960 -0.075570 
		CHANNELS 3 Zrotation Xrotation Yrotation
		JOINT LeftKnee
		{
			OFFSET 0.000000 -0.402270 0.000000 
			CHANNELS 1 Zrotation
			JOINT LeftAnkle
			{
				OFFSET 0.000000 -0.404085 0.000000 
				CHANNELS 3 Zrotation Xrotation Yrotation
				End Site
				{
					OFFSET 0.204105 -0.089430 -0.008415 
				}
			}
		}
	}
}
MOTION
Frames: 30
Frame Time: 0.02
-0.60283 -0.12141 -0.39734 -25.36698 -32.75324 9.76092 50.9434 -1.79365 -4.04879 -4.47981 -9.99805 -2.11994 166.38287 -99.97214 -87.14324 121.22524 78.4527 -75.22666 -21.88649 166.3869 71.17825 87.14684 122.37379 -61.21503 -75.22912 21.88492 64.43014 -10.80212 -2.44941 -17.62783 -10.50779 -1.15795 -2.97737 50.43918 0.69983 16.58862 -31.93409 -6.48986 2.44642 3.41454
-0.60239 -0.12112 -0.39802 -25.07464 -32.64356 9.65303 51.13446 -1.76259 -3.39288 -5.00738 -9.65685 -2.11994 166.39638 -97.42707 -87.15539 120.99265 76.54797 -75.23562 -21.88779 166.3869 72.20045 87.14684 119.7286 -61.70956 -75.2292 21.88484 64.27333 -10.9663 -2.94856 -17.56893 -10.53335 -1.17811 -2.98593 50.3861 0.68131 16.53106 -31.90286 -6.47824 2.41532 3.39953
-0.60175 -0.12085 -0.39858 -24.85058 -32.52181 9.54137 51.35379 -1.71989 -2.57395 -5.57484 -9.27081 -2.11994 166.37595 -94.8799 -87.13686 119.95812 74.79776 -75.22198 -21.88565 166.38689 73.00542 87.14684 116.45498 -62.15418 -75.22893 21.88455 64.07974 -11.13536 -3.61284 -17.48734 -10.5612 -1.16913 -2.98017 50.303 0.67129 16.49305 -31.87827 -6.46456 2.39297 3.38867
-0.6012 -0.12056 -0.3992 -24.60302 -32.405 9.43162 51.55902 -1.67996 -1.82391 -6.11616 -8.90443 -2.11994 166.38244 -92.31432 -87.14315 119.18312 73.00363 -75.22648 -21.88628 166.3869 73.90851 87.14684 113.39157 -62.62012 -75.22929 21.8846 63.90188 -11.29738 -4.18369 -17.41672 -10.58733 -1.17457 -2.98167 50.23129 0.65761 16.44433 -31.85054 -6.45178 2.36773 3.37642
-0.60066 -0.12029 -0.3998 -24.32322 -32.28912 9.31908 51.76969 -1.64954 -1.09421 -6.69464 -8.53902 -2.11994 166.43966 -89.79783 -87.19392 118.88307 71.08262 -75.26414 -21.89171 166.38688 74.81095 87.14684 110.66388 -63.09215 -75.22917 21.88439 63.72513 -11.47911 -4.83343 -17.34347 -10.6139 -1.17506 -2.97988 50.1681 0.64301 16.39617 -31.82344 -6.43942 2.33858 3.36236
-0.60004 -0.12 -0.40041 -24.12502 -32.16934 9.21313 51.97595 -1.59784 -0.28501 -7.20414 -8.16267 -2.11994 166.25862 -87.20316 -87.03132 117.37603 69.46323 -75.1441 -21.8739 166.38688 75.67848 87.14684 107.05676 -63.54303 -75.22805 21.88374 63.54079 -11.62216 -5.3575 -17.27186 -10.64306 -1.1795 -2.98193 50.08089 0.63165 16.35594 -31.79633 -6.42556 2.319 3.35277
-0.59923 -0.11963 -0.40102 -24.15974 -32.0367 9.11461 52.15938 -1.47928 0.71567 -7.51006 -7.7551 -2.11994 166.54573 -84.24235 -87.29147 112.92271 68.71211 -75.33541 -21.9021 166.38695 76.31868 87.14684 101.49301 -63.91008 -75.23148 21.88556 63.31549 -11.64494 -5.49614 -17.18982 -10.65305 -1.19489 -2.99366 49.92874 0.63612 16.31056 -31.77054 -6.40842 2.32876 3.35694
-0.59835 -0.11924 -0.40164 -24.27026 -31.90144 9.02488 52.33779 -1.34165 1.78832 -7.74492 -7.34017 -2.11994 166.42208 -81.23195 -87.17411 107.24967 68.25278 -75.2507 -21.88865 166.38677 76.95679 87.14684 95.02228 -64.26803 -75.22623 21.88322 63.08866 -11.63065 -5.50274 -17.11321 -10.66989 -1.21642 -3.01048 49.75449 0.64208 16.27657 -31.74407 -6.38975 2.34698 3.36507
-0.59751 -0.11886 -0.40226 -24.33024 -31.77105 8.9393 52.52121 -1.22007 2.82037 -8.01445 -6.93691 -2.11994 165.70698 -78.3482 -86.54081 102.00173 67.60978 -74.7804 -21.81998 166.38704 77.72359 87.14685 88.74152 -64.64902 -75.22819 21.88428 62.88245 -11.64159 -5.56751 -17.04792 -10.70115 -1.23975 -3.02787 49.59447 0.64152 16.25379 -31.7159 -6.37146 2.35782 3.3697
-0.59661 -0.11848 -0.40284 -24.45964 -31.62546 8.82039 52.69511 -1.06733 3.89199 -8.27695 -6.49797 -2.11994 168.12559 -75.03206 -88.71163 97.25116 67.17051 -76.38329 -22.05585 166.38698 77.9724 87.14685 83.31808 -64.93182 -75.24226 21.89147 62.59349 -11.61819 -5.64313 -16.92583 -10.66056 -1.24292 -3.03276 49.41626 0.66562 16.16584 -31.69609 -6.35431 2.38341 3.38141
-0.59581 -0.11809 -0.4035 -24.46266 -31.51011 8.77155 52.88601 -0.97455 4.89546 -8.53476 -6.1309 -2.11994 164.10845 -72.59535 -85.07471 91.21102 66.39539 -73.70752 -21.65807 166.38619 79.26646 87.14685 75.97544 -65.43857 -75.19656 21.86924 62.47367 -11.65634 -5.66602 -16.92091 -10.7686 -1.28967 -3.06487 49.27043 0.63897 16.21181 -31.65905 -6.33459 2.3808 3.37957
-0.59533 -0.11768 -0.40437 -24.08845 -31.48744 8.92726 53.13596 -1.057 5.69831 -8.81341 -5.97585 -2.11994 140.78522 -72.68319 -64.47897 81.69448 64.43504 -58.3826 -19.42785 166.38863 83.75976 87.14685 62.92262 -66.3732 -75.27058 21.90551 62.85043 -11.88307 -5.54528 -17.26183 -11.30783 -1.45752 -3.17277 49.22542 0.46871 16.6624 -31.57086 -6.30692 2.29277 3.33665
-0.59494 -0.11726 -0.40531 -23.58582 -31.49389 9.15089 53.4012 -1.19958 6.42829 -9.08671 -5.89166 -2.11994 111.29363 -73.64284 -38.26657 70.96912 62.15692 -38.92923 -16.5772 166.38486 89.25012 87.14686 48.08848 -67.56017 -75.23534 21.88962 63.39239 -12.17136 -5.38045 -17.7163 -11.99221 -1.66866 -3.30757 49.21288 0.24784 17.2407 -31.466 -6.27692 2.177 3.28042
-0.5945 -0.11685 -0.40622 -23.14812 -31.48134 9.33462 53.65196 -1.31137 7.18739 -9.35121 -5.76724 -2.11994 85.7129 -74.14753 -15.25823 60.93768 60.15063 -21.95813 -14.07348 166.3863 94.07716 87.14686 34.49102 -68.77044 -75.06051 21.80254 63.83954 -12.425 -5.25541 -18.10329 -12.59541 -1.85871 -3.42893 49.18162 0.05217 17.73523 -31.37118 -6.24879 2.07756 3.23206
-0.59409 -0.11641 -0.40711 -22.68575 -31.49259 9.55621 53.93365 -1.43701 7.96596 -9.65985 -5.67544 -2.11994 55.48775 -74.89586 10.61915 50.24068 57.63225 -2.42072 -11.30029 166.39625 99.78175 87.14686 19.06831 -69.43719 -75.67052 22.10274 64.36915 -12.70493 -5.04422 -18.55705 -13.26305 -2.05522 -3.55571 49.16603 -0.15263 18.33702 -31.26596 -6.21724 1.96293 3.17625
-0.59364 -0.11603 -0.40807 -22.24281 -31.46181 9.71569 54.15551 -1.54847 8.68575 -9.87723 -5.53387 -2.11994 33.41895 -75.34781 31.71776 40.67415 56.08168 12.75085 -8.93369 166.36366 103.9075 87.14686 7.02346 -71.2467 -74.6373 21.60051 64.76721 -12.94594 -5.00153 -18.89915 -13.8309 -2.24816 -3.67737 49.12618 -0.35058 18.74782 -31.17843 -6.19224 1.87297 3.1326
-0.59304 -0.11582 -0.40922 -21.88848 -31.30278 9.68065 54.2005 -1.60503 9.25943 -9.83539 -5.22712 -2.11994 35.88534 -74.7407 39.41252 34.40406 57.45315 14.83544 -7.91432 166.41665 103.32484 87.14683 4.86093 -76.58024 -68.94639 18.752 64.75317 -13.05812 -5.45301 -18.90077 -14.08702 -2.42322 -3.77965 49.00809 -0.51588 18.58057 -31.14398 -6.1862 1.86018 3.12699
-0.59239 -0.11567 -0.41045 -21.55706 -31.10137 9.5818 54.18617 -1.6455 9.77597 -9.7039 -4.86993 -2.11994 46.68086 -73.81171 41.91478 29.34356 59.77978 12.39047 -7.31547 166.39079 101.13864 87.14679 6.14278 -82.97924 -61.63508 15.12396 64.60245 -13.13033 -6.07228 -18.787 -14.23773 -2.59263 -3.87555 48.86514 -0.67269 18.22022 -31.12789 -6.18678 1.87272 3.13382
-0.59176 -0.11549 -0.41164 -21.21247 -30.92278 9.51643 54.20434 -1.69414 10.31987 -9.61935 -4.54254 -2.11994 53.33528 -73.04688 45.98915 23.81311 61.55016 12.02662 -6.47248 166.26705 99.75505 87.14676 5.77293 -88.6028 -55.15938 11.9475 64.52004 -13.22518 -6.60423 -18.72874 -14.43717 -2.763 -3.9735 48.73595 -0.83438 17.96102 -31.10326 -6.18413 1.87217 3.13415
-0.59115 -0.1153 -0.41282 -20.87517 -30.73041 9.43493 54.19998 -1.74136 10.85707 -9.50818 -4.18809 -2.11994 61.27759 -72.23241 53.46071 17.89738 63.80997 11.69473 -5.81825 166.70185 98.09358 87.14674 5.70059 -95.44671 -48.2525 8.36064 64.4179 -13.30342 -7.18363 -18.66098 -14.63841 -2.94191 -4.07608 48.59777 -0.99388 17.64994 -31.07881 -6.18232 1.87738 3.13762
-0.59048 -0.11516 -0.41405 -20.52971 -30.55602 9.37046 54.22781 -1.78677 11.39349 -9.43152 -3.8777 -2.11994 68.59463 -71.43925 52.7061 13.09428 65.30067 10.18777 -4.89571 165.96188 96.61808 87.14668 5.8554 -100.02113 -41.87099 5.44127 64.32138 -13.40576 -7.70166 -18.58474 -14.80872 -3.10083 -4.16701 48.47163 -1.15482 17.39911 -31.05864 -6.18039 1.87691 3.13766
-0.58963 -0.11511 -0.41539 -20.15744 -30.44389 9.37275 54.36273 -1.83228 11.95963 -9.46995 -3.69606 -2.11994 72.18909 -70.73024 29.12355 11.01695 64.26633 6.33885 -2.98489 161.93854 96.03488 87.14668 5.75932 -97.87077 -37.24744 4.58165 64.28043 -13.58625 -8.03739 -18.5077 -14.92044 -3.20801 -4.22846 48.38768 -1.32533 17.36427 -31.04543 -6.17631 1.85494 3.12522
-0.58871 -0.11511 -0.41676 -19.77665 -30.35073 9.39327 54.53123 -1.87599 12.52382 -9.54666 -3.56117 -2.11994 74.88978 -70.05916 -2.33546 10.03315 62.45618 1.47925 -0.81777 156.74985 95.69157 87.14663 5.78899 -93.43491 -33.22675 4.41655 64.24775 -13.79194 -8.3022 -18.42665 -15.00356 -3.2946 -4.27802 48.31598 -1.49655 17.39603 -31.03606 -6.17195 1.82642 3.10895
-0.58782 -0.11509 -0.41812 -19.3994 -30.24729 9.40239 54.68197 -1.91948 13.07772 -9.6073 -3.4079 -2.11994 78.00387 -69.40168 -29.30108 8.58831 61.11476 -2.8013 1.13175 152.12913 95.24248 87.14651 5.79294 -90.17384 -28.98785 3.91625 64.20615 -13.98434 -8.5791 -18.35045 -15.09859 -3.38909 -4.33219 48.2367 -1.66505 17.39462 -31.02528 -6.16785 1.80083 3.09451
-0.58695 -0.11508 -0.41949 -19.02389 -30.14947 9.42247 54.84157 -1.96687 13.67738 -9.65917 -3.2406 -2.11994 81.37556 -68.60429 -60.27421 7.03379 59.3229 -7.73472 3.48624 147.33046 94.72494 87.14678 5.78181 -86.37658 -24.45279 3.46959 64.18182 -14.18231 -8.94002 -18.25726 -15.19539 -3.48977 -4.38967 48.16522 -1.8439 17.39724 -31.01371 -6.16336 1.7764 3.08018
-0.58602 -0.11505 -0.42083 -18.64291 -30.0449 9.42488 54.99098 -2.00585 14.18123 -9.73958 -3.11457 -2.11994 83.8889 -68.1102 -84.73934 5.95107 58.26404 -11.49994 5.07315 142.64328 94.42701 87.14625 5.7891 -83.13799 -20.70405 3.08851 64.12504 -14.37624 -9.11549 -18.20034 -15.28211 -3.57245 -4.43732 48.08051 -2.00085 17.41173 -31.00445 -6.15963 1.74752 3.06446
-0.58488 -0.11499 -0.42203 -18.24522 -29.91794 9.37409 55.10844 -2.0226 14.42785 -9.88979 -3.08866 -2.11994 84.23429 -68.45485 -88.97904 5.90773 59.48757 -11.68866 4.3944 138.40822 94.68865 87.14324 5.78751 -82.00793 -18.94391 2.70371 63.97889 -14.54321 -8.71933 -18.24198 -15.35655 -3.6128 -4.46245 47.95814 -2.10263 17.42586 -31.00068 -6.15709 1.70933 3.04644
-0.58367 -0.11492 -0.4232 -17.84301 -29.78352 9.30518 55.21397 -2.03092 14.57711 -10.06781 -3.10331 -2.11994 83.70819 -69.10275 -86.43107 6.29523 61.45718 -10.66338 2.95121 134.35285 95.16843 87.1395 5.78829 -81.51215 -17.96906 2.36766 63.80006 -14.70687 -8.15075 -18.32127 -15.42088 -3.63536 -4.47785 47.82178 -2.18148 17.45309 -30.99901 -6.15545 1.66658 3.02701
-0.58252 -0.11486 -0.42438 -17.44506 -29.65216 9.24485 55.32237 -2.04283 14.76674 -10.23325 -3.10126 -2.11994 83.55084 -69.60673 -87.18219 6.47622 63.03652 -10.23989 1.91567 130.30724 95.54897 87.1363 5.7899 -80.71645 -16.66598 2.02296 63.63537 -14.87897 -7.71289 -18.3856 -15.48456 -3.66447 -4.49659 47.6907 -2.26709 17.48716 -30.99621 -6.15404 1.6248 3.00771
-0.58128 -0.11477 -0.42557 -17.03708 -29.52296 9.18368 55.44265 -2.0557 14.97267 -10.39957 -3.09369 -2.11994 83.48411 -70.13858 -87.31403 6.73942 64.80888 -9.64491 0.63748 125.83258 95.93867 87.13223 5.79041 -79.89174 -15.26191 1.6449 63.47382 -15.02404 -7.05872 -18.44078 -15.56874 -3.69915 -4.51933 47.56461 -2.36766 17.47212 -30.99422 -6.15003 1.58716 2.99029
